<mxfile host="app.diagrams.net" modified="2024-02-27T20:46:11.270Z" agent="Mozilla/5.0 (Macintosh; Intel Mac OS X 10_15_7) AppleWebKit/537.36 (KHTML, like Gecko) Chrome/121.0.0.0 Safari/537.36" etag="cf2SxQxtfSrQNzRzPq7T" version="23.1.7" type="github">
  <diagram name="Page-1" id="6et_J9E4sg6bof_DBtYU">
    <mxGraphModel dx="954" dy="606" grid="1" gridSize="10" guides="1" tooltips="1" connect="1" arrows="1" fold="1" page="1" pageScale="1" pageWidth="827" pageHeight="1169" math="0" shadow="0">
      <root>
        <mxCell id="0" />
        <mxCell id="1" parent="0" />
        <mxCell id="UqALLDtSSZnSQeG7DkNx-3" value="" style="rounded=0;whiteSpace=wrap;html=1;opacity=0;" vertex="1" parent="1">
          <mxGeometry x="240" y="200" width="40" as="geometry" />
        </mxCell>
        <mxCell id="UqALLDtSSZnSQeG7DkNx-5" value="" style="rounded=0;whiteSpace=wrap;html=1;" vertex="1" parent="1">
          <mxGeometry x="240" y="160" width="330" height="210" as="geometry" />
        </mxCell>
        <mxCell id="UqALLDtSSZnSQeG7DkNx-6" value="" style="shape=cylinder3;whiteSpace=wrap;html=1;boundedLbl=1;backgroundOutline=1;size=15;" vertex="1" parent="1">
          <mxGeometry x="354" y="30" width="60" height="80" as="geometry" />
        </mxCell>
        <mxCell id="UqALLDtSSZnSQeG7DkNx-7" value="&lt;font style=&quot;font-size: 14px;&quot;&gt;Data Preprocessing&lt;/font&gt;" style="text;html=1;align=center;verticalAlign=middle;whiteSpace=wrap;rounded=0;strokeWidth=8;" vertex="1" parent="1">
          <mxGeometry x="347" y="170" width="120" height="30" as="geometry" />
        </mxCell>
        <mxCell id="UqALLDtSSZnSQeG7DkNx-13" value="" style="rounded=1;whiteSpace=wrap;html=1;opacity=45;dashed=1;" vertex="1" parent="1">
          <mxGeometry x="310" y="220" width="190" height="140" as="geometry" />
        </mxCell>
        <mxCell id="UqALLDtSSZnSQeG7DkNx-14" value="" style="group" vertex="1" connectable="0" parent="1">
          <mxGeometry x="340" y="250" width="134" height="97" as="geometry" />
        </mxCell>
        <mxCell id="UqALLDtSSZnSQeG7DkNx-10" value="PCA" style="rounded=0;whiteSpace=wrap;html=1;" vertex="1" parent="UqALLDtSSZnSQeG7DkNx-14">
          <mxGeometry y="43" width="120" height="54" as="geometry" />
        </mxCell>
        <mxCell id="UqALLDtSSZnSQeG7DkNx-11" value="Recursive Feature Elimination" style="rounded=0;whiteSpace=wrap;html=1;" vertex="1" parent="UqALLDtSSZnSQeG7DkNx-14">
          <mxGeometry x="14" width="120" height="60" as="geometry" />
        </mxCell>
        <mxCell id="UqALLDtSSZnSQeG7DkNx-15" value="Feature Engineering" style="text;html=1;align=center;verticalAlign=middle;whiteSpace=wrap;rounded=0;" vertex="1" parent="1">
          <mxGeometry x="333" y="220" width="154" height="30" as="geometry" />
        </mxCell>
        <mxCell id="UqALLDtSSZnSQeG7DkNx-18" value="Model Implementation" style="rounded=0;whiteSpace=wrap;html=1;" vertex="1" parent="1">
          <mxGeometry x="183" y="480" width="150" height="60" as="geometry" />
        </mxCell>
        <mxCell id="UqALLDtSSZnSQeG7DkNx-19" value="Model Implementation" style="rounded=0;whiteSpace=wrap;html=1;" vertex="1" parent="1">
          <mxGeometry x="498" y="480" width="150" height="60" as="geometry" />
        </mxCell>
        <mxCell id="UqALLDtSSZnSQeG7DkNx-21" value="" style="endArrow=classic;html=1;rounded=0;exitX=0.333;exitY=0.998;exitDx=0;exitDy=0;exitPerimeter=0;entryX=0.393;entryY=0.042;entryDx=0;entryDy=0;entryPerimeter=0;" edge="1" parent="1" source="UqALLDtSSZnSQeG7DkNx-5" target="UqALLDtSSZnSQeG7DkNx-18">
          <mxGeometry width="50" height="50" relative="1" as="geometry">
            <mxPoint x="390" y="390" as="sourcePoint" />
            <mxPoint x="175" y="480" as="targetPoint" />
            <Array as="points">
              <mxPoint x="350" y="400" />
              <mxPoint x="240" y="400" />
            </Array>
          </mxGeometry>
        </mxCell>
        <mxCell id="UqALLDtSSZnSQeG7DkNx-23" value="&lt;font size=&quot;1&quot; style=&quot;&quot;&gt;&lt;b style=&quot;font-size: 15px;&quot;&gt;Without F.E&lt;/b&gt;&lt;/font&gt;" style="text;html=1;align=center;verticalAlign=middle;whiteSpace=wrap;rounded=0;" vertex="1" parent="1">
          <mxGeometry x="170" y="420" width="150" height="30" as="geometry" />
        </mxCell>
        <mxCell id="UqALLDtSSZnSQeG7DkNx-25" value="" style="endArrow=classic;html=1;rounded=0;entryX=0.5;entryY=0;entryDx=0;entryDy=0;exitX=0.597;exitY=1.007;exitDx=0;exitDy=0;exitPerimeter=0;" edge="1" parent="1" source="UqALLDtSSZnSQeG7DkNx-5" target="UqALLDtSSZnSQeG7DkNx-19">
          <mxGeometry width="50" height="50" relative="1" as="geometry">
            <mxPoint x="390" y="390" as="sourcePoint" />
            <mxPoint x="440" y="340" as="targetPoint" />
            <Array as="points">
              <mxPoint x="437" y="400" />
              <mxPoint x="573" y="400" />
            </Array>
          </mxGeometry>
        </mxCell>
        <mxCell id="UqALLDtSSZnSQeG7DkNx-26" value="&lt;b&gt;&lt;font style=&quot;font-size: 16px;&quot;&gt;With F.E&lt;/font&gt;&lt;/b&gt;" style="text;html=1;align=center;verticalAlign=middle;whiteSpace=wrap;rounded=0;" vertex="1" parent="1">
          <mxGeometry x="526" y="420" width="80" height="30" as="geometry" />
        </mxCell>
        <mxCell id="UqALLDtSSZnSQeG7DkNx-33" value="" style="group" vertex="1" connectable="0" parent="1">
          <mxGeometry x="120" y="460" width="63" height="90" as="geometry" />
        </mxCell>
        <mxCell id="UqALLDtSSZnSQeG7DkNx-28" value="Model 1st" style="text;html=1;align=center;verticalAlign=middle;whiteSpace=wrap;rounded=0;" vertex="1" parent="UqALLDtSSZnSQeG7DkNx-33">
          <mxGeometry x="3" y="60" width="60" height="30" as="geometry" />
        </mxCell>
        <mxCell id="UqALLDtSSZnSQeG7DkNx-29" value="Model K" style="text;html=1;align=center;verticalAlign=middle;whiteSpace=wrap;rounded=0;" vertex="1" parent="UqALLDtSSZnSQeG7DkNx-33">
          <mxGeometry width="60" height="30" as="geometry" />
        </mxCell>
        <mxCell id="UqALLDtSSZnSQeG7DkNx-30" value="" style="endArrow=none;dashed=1;html=1;dashPattern=1 3;strokeWidth=2;rounded=0;" edge="1" parent="UqALLDtSSZnSQeG7DkNx-33" source="UqALLDtSSZnSQeG7DkNx-28" target="UqALLDtSSZnSQeG7DkNx-29">
          <mxGeometry width="50" height="50" relative="1" as="geometry">
            <mxPoint x="-10" y="70" as="sourcePoint" />
            <mxPoint x="40" y="20" as="targetPoint" />
          </mxGeometry>
        </mxCell>
        <mxCell id="UqALLDtSSZnSQeG7DkNx-34" value="" style="group" vertex="1" connectable="0" parent="1">
          <mxGeometry x="655" y="460" width="63" height="90" as="geometry" />
        </mxCell>
        <mxCell id="UqALLDtSSZnSQeG7DkNx-35" value="Model 1st" style="text;html=1;align=center;verticalAlign=middle;whiteSpace=wrap;rounded=0;" vertex="1" parent="UqALLDtSSZnSQeG7DkNx-34">
          <mxGeometry x="3" y="60" width="60" height="30" as="geometry" />
        </mxCell>
        <mxCell id="UqALLDtSSZnSQeG7DkNx-36" value="Model K" style="text;html=1;align=center;verticalAlign=middle;whiteSpace=wrap;rounded=0;" vertex="1" parent="UqALLDtSSZnSQeG7DkNx-34">
          <mxGeometry width="60" height="30" as="geometry" />
        </mxCell>
        <mxCell id="UqALLDtSSZnSQeG7DkNx-37" value="" style="endArrow=none;dashed=1;html=1;dashPattern=1 3;strokeWidth=2;rounded=0;" edge="1" parent="UqALLDtSSZnSQeG7DkNx-34" source="UqALLDtSSZnSQeG7DkNx-35" target="UqALLDtSSZnSQeG7DkNx-36">
          <mxGeometry width="50" height="50" relative="1" as="geometry">
            <mxPoint x="-10" y="70" as="sourcePoint" />
            <mxPoint x="40" y="20" as="targetPoint" />
          </mxGeometry>
        </mxCell>
        <mxCell id="UqALLDtSSZnSQeG7DkNx-47" value="" style="group" vertex="1" connectable="0" parent="1">
          <mxGeometry x="280" y="630" width="270" height="110" as="geometry" />
        </mxCell>
        <mxCell id="UqALLDtSSZnSQeG7DkNx-38" value="" style="shape=internalStorage;whiteSpace=wrap;html=1;backgroundOutline=1;" vertex="1" parent="UqALLDtSSZnSQeG7DkNx-47">
          <mxGeometry width="270" height="110" as="geometry" />
        </mxCell>
        <mxCell id="UqALLDtSSZnSQeG7DkNx-45" value="&lt;font size=&quot;1&quot; style=&quot;&quot;&gt;&lt;b style=&quot;font-size: 15px;&quot;&gt;Without F.E&lt;/b&gt;&lt;/font&gt;" style="text;html=1;align=center;verticalAlign=middle;whiteSpace=wrap;rounded=0;" vertex="1" parent="UqALLDtSSZnSQeG7DkNx-47">
          <mxGeometry x="67.71986970684038" y="70" width="131.9218241042345" height="30" as="geometry" />
        </mxCell>
        <mxCell id="UqALLDtSSZnSQeG7DkNx-46" value="&lt;b&gt;&lt;font style=&quot;font-size: 16px;&quot;&gt;With F.E&lt;/font&gt;&lt;/b&gt;" style="text;html=1;align=center;verticalAlign=middle;whiteSpace=wrap;rounded=0;" vertex="1" parent="UqALLDtSSZnSQeG7DkNx-47">
          <mxGeometry x="94.10423452768728" y="22" width="70.35830618892507" height="30" as="geometry" />
        </mxCell>
        <mxCell id="UqALLDtSSZnSQeG7DkNx-49" value="" style="endArrow=none;dashed=1;html=1;rounded=0;entryX=1;entryY=0.5;entryDx=0;entryDy=0;exitX=0.065;exitY=0.545;exitDx=0;exitDy=0;exitPerimeter=0;" edge="1" parent="UqALLDtSSZnSQeG7DkNx-47" source="UqALLDtSSZnSQeG7DkNx-38" target="UqALLDtSSZnSQeG7DkNx-38">
          <mxGeometry width="50" height="50" relative="1" as="geometry">
            <mxPoint x="26.384364820846905" y="90" as="sourcePoint" />
            <mxPoint x="70.35830618892507" y="40" as="targetPoint" />
          </mxGeometry>
        </mxCell>
        <mxCell id="UqALLDtSSZnSQeG7DkNx-54" value="" style="endArrow=classic;html=1;rounded=0;exitX=0.38;exitY=1.033;exitDx=0;exitDy=0;exitPerimeter=0;entryX=0;entryY=0.75;entryDx=0;entryDy=0;" edge="1" parent="1" source="UqALLDtSSZnSQeG7DkNx-18" target="UqALLDtSSZnSQeG7DkNx-38">
          <mxGeometry width="50" height="50" relative="1" as="geometry">
            <mxPoint x="390" y="550" as="sourcePoint" />
            <mxPoint x="440" y="500" as="targetPoint" />
            <Array as="points">
              <mxPoint x="240" y="713" />
            </Array>
          </mxGeometry>
        </mxCell>
        <mxCell id="UqALLDtSSZnSQeG7DkNx-58" value="" style="endArrow=classic;html=1;rounded=0;exitX=0.6;exitY=0.983;exitDx=0;exitDy=0;exitPerimeter=0;entryX=1;entryY=0.364;entryDx=0;entryDy=0;entryPerimeter=0;" edge="1" parent="1" source="UqALLDtSSZnSQeG7DkNx-19" target="UqALLDtSSZnSQeG7DkNx-38">
          <mxGeometry width="50" height="50" relative="1" as="geometry">
            <mxPoint x="588" y="539" as="sourcePoint" />
            <mxPoint x="550" y="670" as="targetPoint" />
            <Array as="points">
              <mxPoint x="588" y="670" />
            </Array>
          </mxGeometry>
        </mxCell>
        <mxCell id="UqALLDtSSZnSQeG7DkNx-59" value="Model Evaluation Matrix" style="text;html=1;align=center;verticalAlign=middle;whiteSpace=wrap;rounded=0;" vertex="1" parent="1">
          <mxGeometry x="340" y="600" width="180" height="30" as="geometry" />
        </mxCell>
      </root>
    </mxGraphModel>
  </diagram>
</mxfile>
